<?xml version="1.0" encoding="utf-8"?>
<!DOCTYPE svg PUBLIC "-//W3C//DTD SVG 1.1//EN" "http://www.w3.org/Graphics/SVG/1.1/DTD/svg11.dtd">
<svg version="1.1" id="LOGO" xmlns="http://www.w3.org/2000/svg" xmlns:xlink="http://www.w3.org/1999/xlink" x="0px" y="0px"
	 width="1000px" height="440px" viewBox="0 0 1000 440" enable-background="new 0 0 1000 440" xml:space="preserve">
<g id="TYPO">
	<g id="INSTINCT">
		<path fill="#1D1D1B" d="M346.785,245.367h7.046v70.514h-7.046V245.367z"/>
		<path fill="#1D1D1B" d="M399.482,315.881v-70.514h1.534l46.931,54.05v-54.05h6.95v70.514h-1.583l-46.544-53.395v53.395H399.482z"/>
		<path fill="#1D1D1B" d="M494.222,302.745l5.994-3.595c4.217,7.765,9.089,11.646,14.621,11.646c2.361,0,4.584-0.552,6.66-1.653
			c2.078-1.1,3.658-2.579,4.745-4.433c1.089-1.853,1.629-3.818,1.629-5.896c0-2.365-0.795-4.681-2.395-6.95
			c-2.207-3.133-6.232-6.903-12.078-11.315c-5.883-4.437-9.543-7.65-10.979-9.633c-2.493-3.322-3.738-6.917-3.738-10.784
			c0-3.068,0.734-5.865,2.205-8.389c1.468-2.526,3.54-4.516,6.207-5.968c2.668-1.456,5.568-2.182,8.701-2.182
			c3.321,0,6.432,0.822,9.322,2.469c2.893,1.646,5.953,4.674,9.177,9.082l-5.749,4.363c-2.651-3.515-4.912-5.831-6.784-6.951
			c-1.867-1.118-3.905-1.678-6.11-1.678c-2.845,0-5.172,0.864-6.974,2.588c-1.809,1.727-2.706,3.852-2.706,6.377
			c0,1.533,0.313,3.019,0.956,4.457c0.64,1.439,1.806,3.004,3.5,4.697c0.925,0.896,3.959,3.243,9.107,7.047
			c6.1,4.504,10.288,8.516,12.559,12.031c2.268,3.516,3.402,7.049,3.402,10.594c0,5.113-1.94,9.556-5.824,13.326
			c-3.883,3.771-8.604,5.656-14.165,5.656c-4.28,0-8.166-1.143-11.649-3.428C500.372,311.941,497.161,308.114,494.222,302.745z"/>
		<path fill="#1D1D1B" d="M572.855,252.269v-6.901h38.637v6.901h-15.726v63.612h-7.188v-63.612H572.855z"/>
		<path fill="#1D1D1B" d="M650.097,245.367h7.048v70.514h-7.048V245.367z"/>
		<path fill="#1D1D1B" d="M702.798,315.881v-70.514h1.533l46.927,54.05v-54.05h6.954v70.514h-1.583l-46.544-53.395v53.395H702.798z"/>
		<path fill="#1D1D1B" d="M870.495,258.452l-5.562,4.27c-3.067-3.997-6.75-7.024-11.05-9.088c-4.299-2.059-9.021-3.09-14.162-3.09
			c-5.63,0-10.837,1.351-15.627,4.05c-4.797,2.701-8.51,6.328-11.147,10.881c-2.638,4.556-3.955,9.676-3.955,15.363
			c0,8.598,2.949,15.771,8.844,21.524c5.897,5.752,13.334,8.629,22.315,8.629c9.873,0,18.134-3.866,24.782-11.601l5.562,4.216
			c-3.517,4.477-7.9,7.935-13.16,10.378c-5.256,2.446-11.128,3.668-17.613,3.668c-12.34,0-22.068-4.106-29.196-12.318
			c-5.977-6.937-8.962-15.306-8.962-25.119c0-10.321,3.618-19.005,10.856-26.053c7.237-7.047,16.306-10.568,27.204-10.568
			c6.583,0,12.524,1.301,17.832,3.906C862.758,250.106,867.104,253.753,870.495,258.452z"/>
		<path fill="#1D1D1B" d="M907.087,252.269v-6.901h38.637v6.901h-15.723v63.612h-7.191v-63.612H907.087z"/>
	</g>
	<g id="MARTIAL">
		<path fill="#1D1D1B" d="M360.551,170.367v58.83h-16.302v-98.381l49.191,49.189l49.335-49.189v98.381h-16.586v-58.83l-32.749,32.888
			L360.551,170.367z"/>
		<path fill="#1D1D1B" d="M524.571,212.754h-45.223l-8.366,16.443h-18.284l49.188-98.381l49.195,98.381h-18.287L524.571,212.754z
			 M487.429,196.45h28.922l-14.465-28.919L487.429,196.45z"/>
		<path fill="#1D1D1B" d="M624.084,229.197l-18.995-32.747h-27.787v32.747h-16.303v-98.381h49.195
			c8.976,0,16.68,3.213,23.105,9.637c6.426,6.43,9.64,14.131,9.64,23.107c0,6.807-1.939,12.996-5.813,18.571
			c-3.782,5.482-8.602,9.404-14.461,11.767l20.273,35.299H624.084z M610.194,147.259h-32.893v32.604l32.893,0.143
			c4.438,0,8.269-1.605,11.479-4.82c3.216-3.21,4.824-7.086,4.824-11.625c0-4.439-1.608-8.269-4.824-11.479
			C618.463,148.868,614.633,147.259,610.194,147.259z"/>
		<path fill="#1D1D1B" d="M652.862,130.816h82.077v16.442h-32.745v81.938h-16.443v-81.938h-32.889V130.816z"/>
		<path fill="#1D1D1B" d="M744.865,130.816h16.299v98.381h-16.299V130.816z"/>
		<path fill="#1D1D1B" d="M842.96,212.754h-45.22l-8.367,16.443H771.09l49.188-98.381l49.19,98.381h-18.283L842.96,212.754z
			 M805.82,196.45h28.917l-14.459-28.919L805.82,196.45z"/>
		<path fill="#1D1D1B" d="M879.391,130.816h16.303v81.938h49.191v16.443h-65.494V130.816z"/>
	</g>
</g>
<path id="CIRCLE" fill="#CD2728" d="M295.867,180.752c-3.032-7.733-6.921-15.09-11.521-21.93c-0.012-0.02-0.022-0.039-0.035-0.058
	c-3.765-6.026-13.879-17.359-21.274-22.202c0.015-0.055-0.709-0.513-1.565-0.951c-0.237-0.129-0.469-0.252-0.699-0.365
	c-0.607-0.328-1.18-0.664-1.495-0.922c-0.883-0.727-2.182-1.833-4.357-3.4c-2.174-1.566-6.135-4.154-12.083-7.276
	c8.113,3.097,11.963,5.86,16.513,8.766c1.394,0.879,4.23,2.561,7.786,5.024c-2.823-2.775-6.258-5.458-7.834-6.492
	c-2.479-1.636-5.076-3.204-7.754-4.69c3.809,1.725,6.347,3.176,8.098,4.233c1.178,0.367,2.724,0.887,4.779,1.705l-1.14-0.81
	c-4.208-2.474-10.912-6.074-17.15-8.511c7.215,1.75,15.562,6.012,19.256,8.105c-3.021-1.939-8.698-5.854-14.39-9
	c-6.41-3.812-18.315-6.746-23.84-8.028c-7.578-1.803-15.177-2.887-22.684-3.287c-5.042-0.27-8.952-0.408-14.978,0.071
	c-6.026,0.478-20.351,2.77-20.388,2.854c-6.417,1.416-12.625,3.299-18.571,5.604c-4.708,1.825-9.25,3.906-13.629,6.215
	c0,0-9.091,4.73-17.417,10.699c0,0.057,0,0.114,0,0.174c-4.726,3.46-9.144,7.287-13.151,11.412
	c-6.446,6.618-11.815,13.997-15.854,21.627c-1.639,2.991-3.565,7.054-5.037,10.072c-5.977,12.471-8.923,25.925-9.523,38.901
	c0,0-0.099,2.235-0.088,3.36c0.011,1.128,0.075,7.522,0.075,7.522c0.383,12.576,2.882,24.776,7.252,36.142
	c4.873,12.691,12.034,24.356,21.119,34.577c0.499,0.559,1.005,1.106,1.515,1.651v0.002c0.4,0.427,0.802,0.852,1.208,1.272
	c11.757,11.059,19.14,15.808,19.14,15.808c0.353,0.228,2.294,1.979,10.69,6.047c5.285,2.56,10.716,4.731,16.245,6.476
	c16.231,4.82,24.345,5.748,24.345,5.748c5.017,0.573,10.006,0.844,14.956,0.836c0,0,0.989,0.005,2.654-0.033
	c1.258-0.002,2.512-0.03,3.762-0.074c0,0,2.91-0.166,2.91-0.146c3.521-0.259,5.272-0.457,5.272-0.457
	c1.893-0.175,5.877-0.781,5.908-0.841c5.946-1.022,11.833-2.57,17.699-4.682c1.053-0.384,2.098-0.774,3.147-1.193
	c5.643-2.265,10.919-4.847,15.893-7.734c0.435-0.239,0.945-0.547,1.512-0.9c1.083-0.65,3.178-2.058,3.161-2.091
	c3.775-2.595,8.572-6.168,12.492-9.309c2.539-1.994,3.779-3.139,3.779-3.139c6.891-6.373,13.143-13.674,18.628-22.253
	l-0.362-0.194c0.885-1.459,1.708-2.895,2.436-4.263c2.204-4.11,3.65-7.654,4.229-9.7c1.985-5.516,2.688-9.02,2.924-10.923
	c0.213-1.91-0.081-2.247-0.656-1.641c-0.575,0.606-1.464,2.147-2.543,3.974c-1.077,1.829-2.368,3.936-3.65,5.733
	c-1.604,2.682-1.915,1.938-2.375,1.623c-0.235-0.162-0.506-0.22-1.021,0.273c-0.514,0.491-1.253,1.54-2.5,3.543
	c1.533-3.021,2.554-5.351,3.519-7.707c0.949-2.362,1.847-4.754,2.854-8.006c-0.282-0.489-1.659,4.544-3.457,8.92
	c-1.757,4.396-3.772,8.126-3.314,5.731c1.572-2.837,2.899-6.019,4.021-9.297c1.123-3.277,2.041-6.647,2.882-9.894
	c-0.81,0.997-2.413,6.552-4.509,11.485c-2.041,4.956-4.454,9.269-4.705,8.557c0.717-1.633,3.082-5.648,4.845-9.673
	c1.795-4.003,2.99-7.955,2.485-8.749c-0.103-0.16-0.585,1.356-1.246,3.278c-0.652,1.924-1.495,4.25-2.108,5.782
	c3.486-9.568,4.298-17.472,4.18-20.475c-0.068-1.516-0.352-1.839-0.858-0.686c-0.523,1.146-1.245,3.777-2.638,8.044
	c0.744-3.013,1.595-6.674,2.167-10.441c0.577-3.765,0.876-7.631,0.776-10.938c-0.022,1.649-0.165,3.893-0.389,6.092
	c-0.225,2.197-0.534,4.352-0.741,5.852c0.503-3.69,0.793-7.429,0.847-11.169c-0.196,0.587-0.405,1.25-0.615,1.942
	c-0.251,2.769-0.598,5.528-0.963,8.388c0.313-2.43,0.529-4.88,0.648-7.344l-1.76,6.121c-0.911,4.246-2.241,8.268-3.568,11.715
	c-1.322,3.455-2.634,6.34-3.435,8.472c-2.438,6.339-5.617,12.389-9.42,18.029c-5.599,7.741-17.167,18.604-26.572,25.354
	c-6.251,4.249-12.953,7.676-19.93,10.256c-2.953,0.981-8.72,2.167-13.214,2.894c-12.529,2.278-25.605,2.263-38.326,0.009
	c-4.407-0.784-13.118-3.048-13.14-2.982c-1.814-0.519-5.603-1.646-7.508-2.483c-6.662-2.926-16.448-6.238-25.465-14.919
	c-9.017-8.68-13.892-14.228-19.553-23.747c-3.212-5.562-5.841-11.446-7.794-17.562c-2.694-8.424-4.414-15.692-4.429-26.077
	c-0.001-0.628-0.028-1.652-0.048-2.951c0.306-3.912,0.706-8.256,1.209-11.677c1.187-8.06,5.609-20.359,7.685-24.751
	c3.185-6.903,7.009-13.094,11.324-18.74c2.785-3.638,5.78-7.05,8.997-10.266c1.916-1.67,3.885-3.28,5.92-4.808
	c10.031-7.843,21.616-13.909,33.925-17.827c4.267-1.357,8.628-2.445,13.05-3.272c10.613-1.972,21.616-2.339,32.462-1.088
	c4.447,0.516,8.871,1.313,13.242,2.377c6.577,1.316,19.984,4.074,22.755,5.159c3.219,1.26,0.965,0.371,0.873,0.334
	c4.861,1.859,11.339,4.903,15.718,8.084s19.25,14.895,22.674,18.62c1.582,1.83,3.297,4.053,5.104,6.778
	c2.803,4.254,5.834,9.736,8.53,16.864c1.001,2.805,1.909,6.066,2.63,9.445c0.73,3.38,1.251,6.882,1.597,10.15
	c0.704,6.547,0.626,12.147,0.878,14.235c0.201,1.493,0.409,1.369,0.625,0.435c0.108-0.435,0.211-1.228,0.312-2.073
	c0.095-0.857,0.181-1.832,0.253-2.809c0.289-3.902,0.303-7.87,1.009-4.547C302.491,202.324,299.969,191.196,295.867,180.752z"/>
<g id="BRUSHES">
	<path fill="#1D1D1B" d="M269.847,333.813c-1.833-17.84-2.124-35.824-1.462-53.739c1.582-42.821,7.968-85.601,17.259-127.4
		c3.139-14.12,4.505-19.729,8.552-33.622c0.142-0.853-0.178-1.384-0.118-1.555c-1.07,1.662-4.62,3.209-5.549,4.541
		c1.35-4.015,2.784-7.966,2.828-9.66c0.914-4.421,0.656-5.556-0.283-5.292c-0.931,0.267-2.494,1.975-4.021,3.291
		c-1.665,2.093-1.796-1.592-3.95,1.874c0.981-2.702,1.485-4.053,2.537-6.746c-0.332-0.303-1.016,1.818-1.652,3.728
		c-0.64,1.908-1.244,3.604-1.563,2.436c1.208-2.519,1.785-5.621,2.875-8.317c-0.71,0.266-1.709,2.584-2.592,4.742
		c-0.887,2.158-1.674,4.156-2.126,3.765c0.132-0.781,1.157-2.585,2.032-4.305c0.873-1.72,1.599-3.359,1.054-3.87
		c-0.224-0.205-1.295,2.518-1.803,3.882c1.315-4.288,2.232-7.711,2.235-9.195c0.016-1.481-1.006-1.001-3.253,2.635
		c1.097-2.708,3.218-6.298,4.534-9.338c-0.795,1.461-2.172,3.841-2.747,5.164c0.717-1.627,1.475-3.266,2.324-4.938
		c-0.305,0.178-0.624,0.396-0.946,0.63c-0.751,1.183-1.434,2.375-2.002,3.654c0.483-1.087,0.985-2.182,1.525-3.295
		c-0.799,0.645-1.632,1.426-2.458,2.313c-0.565,0.805-4.13,1.28-5.396,1.56c-0.485,1.001-0.947,2.013-1.39,3.033
		c-0.359,0.897-0.712,1.799-1.055,2.702c-1.685,4.434-3.224,8.924-4.677,13.438c-2.659,8.26-2.578,8.146-4.852,16.537
		c-6.503,24.792-11.466,50.043-15.374,75.293c-0.425,2.743-0.838,5.491-1.233,8.238c-0.183,1.277-0.365,2.555-0.542,3.832
		c-0.708,5.374-1.364,10.756-1.946,16.145c-1.168,10.825-2.091,21.678-2.669,32.55c-0.614,11.527-0.878,23.086-0.637,34.632
		c2.187,1.742,6.302,2.797,6.302,2.797s2.479,3.269,3.54,6.696c1.056,3.431,2.169,6.556,3.652,4.997
		c-0.083,4.266-0.052,10.677,0.796,10.983c1.258,0.463,2.621,1.494,3.915,3.784c1.299,2.291,3.909,0.545,5.309,6.668
		s8.722,23.811,7.791,14.743C271.1,347.235,270.037,335.674,269.847,333.813z"/>
	<path fill="#1D1D1B" d="M252.335,110.687c0.204-0.601,0.492-1.21,0.311-1.667c-0.689,1.44-1.472,2.429-2.436,2.725
		c-1.01-0.052,0.296-1.058-0.705-1.111c-0.462,0.906-0.851,2.058-1.677,1.436c-0.099-0.345-0.06-0.749-0.185-1.08
		c0.185-0.556,0.365-1.132,0.536-1.734c-0.976-0.354-1.476-0.533-1.093-3.052c-0.654,1.724-1.327,3.813-2.015,5.999
		c-0.174,0.218-0.349,0.441-0.523,0.672c-0.833,1.096-1.645,2.275-2.157,2.934c-0.051-0.646,0.554-1.585,1.081-2.429
		c0.526-0.848,0.971-1.604,0.573-1.96c-0.198,0.084-0.38,0.236-0.553,0.429c0.851-2.214,1.644-4.349,2.133-6.193l-1.95-0.73
		c-0.485-0.183,0.4-2.563,1.357-4.9c-0.973,2.328-2.747,7.091-3.578,9.494l-0.027-0.009c-0.017-0.441-0.07-0.931-0.077-1.441
		c-0.013-0.957,0.149-1.989,1.041-2.81c-0.586-0.846-0.763,0.968-1.355,0.126c0.257-2.088,1.931-2.702,2.013-4.097
		c-0.899,0.877-1.71,1.917-2.481,3.039c0.062-0.166,0.124-0.333,0.187-0.499c-0.978-0.359-1.03-3.16-2.435-0.914
		c-0.916,2.437-1.783,4.877-2.621,7.324c1.429-4.979,2.081-8.897,2.216-11.693c0.135-2.789,0.514-4.438,0.161-4.403
		c-0.353,0.036-1.908,2.046-2.592,4.249c0.615-2.462,2.297-9.236,2.351-10.067c0.015-0.25,0.022-0.48-0.002-0.638
		c-0.027-0.154-0.069-0.272-0.128-0.35c-0.119-0.154-1.474-1.746-3.104,0.057c-1.629,1.803-5.42,10.105-5.803,11.07
		c-0.381,0.966-0.626,1.588-0.931,2.385c-0.288,0.87-0.575,1.739-0.854,2.611c-5.385,16.727-9.938,33.764-13.832,50.953
		c-0.623,2.975-1.28,6.079-2.006,9.39c-3.151,14.853-5.836,29.798-8.15,44.743c-0.425,2.743-0.838,5.491-1.232,8.238
		c-0.183,1.277-0.365,2.555-0.542,3.832c-0.077,0.563-0.155,1.124-0.231,1.687c-0.708,5.377-1.365,10.761-1.947,16.151
		c-1.169,10.825-2.091,21.678-2.669,32.55c-1.112,20.923-1.089,41.954,1.053,62.812c0.178,1.735,0.838,7.061,3.229,24.451
		c0.257,1.308,0.504,2.115,0.741,2.588c0.235,0.458,2.997,0.594,3.224,0.571c0.452-0.049-2.82-20.021-1.971-27.879
		c-0.065-2.603,2.147,2.965,3.124,0.344c-0.075-2.576-0.144-9.819-0.141-12.424c0.012-0.021,0.022-0.036,0.035-0.058
		c0.777-1.28,1.095,0.158,1.208-3.036c0.107-3.192,0.289,1.155,0.849-0.105c0.188-1.109,1.063-0.406,1.066,0.594
		c1.042-2.538-0.007,5.087,1.051,5.081c1.04-0.007,2.08-0.019,3.049-1.283c0.973-1.265,3.431-1.719,4.277-6.727
		c0.561-2.501,1.25-2.818,2.292-2.809c0.007-0.549,3.569,1.164,4.542,2.206c-0.55-11.741-0.53-23.513-0.097-35.254
		c1.461-39.56,7.026-79.084,15.19-117.834c0,0,0.377-1.698,0.549-2.586c0.498-2.33,1.003-4.657,1.52-6.98
		c0.861-3.874,1.759-7.742,2.677-11.605c0.522-2.02,1.053-3.99,1.589-5.926c1.135-4.058,2.317-7.961,3.609-11.785
		c1.292-3.814,2.696-7.577,4.307-11.154C252.858,111.869,252.131,111.286,252.335,110.687z M205.66,321.439c0-0.008,0-0.016,0-0.023
		C206.449,320.108,206.046,320.79,205.66,321.439z"/>
	<path fill="#1D1D1B" d="M179.394,280.073c0.41-11.106,1.146-22.21,2.17-33.294c1.214-15.8,2.758-27.572,4.706-38.655
		c2.796-18.619,6.31-37.129,10.382-55.451c0.628-2.827,1.859-6.412,1.934-8.474c0.075-2.061-3.521-2.037-4.669-1.754
		c-2.923,0.717-10.187,11.885-11.97,12.095c-1.784,0.212-1.612-1.908-1.612-1.908c0.828-5.404-1.061-4.245-1.273-6.579
		c-0.212-2.334-5.106-8.002-6.774-3.285c-0.567,1.604-1.142,3.311-1.722,5.102c-5.3,21.628-9.486,43.555-12.88,65.479
		c-0.424,2.745-0.838,5.491-1.232,8.24c-0.183,1.277-0.365,2.554-0.541,3.83c-0.708,5.375-1.364,10.76-1.946,16.15
		c-1.169,10.824-2.091,21.678-2.67,32.55c-0.248,4.667-0.436,9.339-0.56,14.013c0.455,8.458,1.128,15.909,2.043,24.132
		c0.032,0.32,3.081,0.353,3.149,0.183c0.07-0.254,0.083-0.701,0.043-0.987c-0.94-17.461-0.85-35.132,0.852-53.749
		c0.643,14.641,1.507,29.359,2.492,44.132c0.286,7.825,0.934,15.009,1.409,22.863c-0.417-8.045-0.973-15.604-1.321-23.247
		c-0.343-7.642-0.475-15.369,0.061-23.687l0.149-1.952c0.3,5.172,0.686,10.242,1.131,15.283
		c-0.361,15.285,0.046,30.541,1.535,45.506c0.152-0.024,0.234-0.654,0.188-1.384c-0.277-8.511-0.28-17.07-0.086-25.634
		l0.285,3.581c0.048,5.503,0.216,11.007,0.545,16.52c0.075,2.062,0.503,3.746,0.947,3.83c0.427,0.01,0.685-1.532,0.628-3.51
		c0.358,6.135,0.809,12.28,1.372,18.429c0.083-0.017,0.115-0.352,0.072-0.75c-1.847-20.348-2.521-40.681-2.65-60.63l0.128-3.265
		c0.345-0.325,0.672-1.028,0.961-1.992c-0.236,7.043-0.315,14.048-0.217,21.07c-0.109,5.845-0.115,11.69,0.009,17.543
		c0.017,0.844,0.174,1.544,0.37,1.558c0.177,0.021,0.296-0.68,0.286-1.564l-0.059-4.298c0.244,1.178,0.579,1.942,0.939,2.014
		c0.348,0.073,0.651-0.524,0.878-1.521c0.428,6.288,1.033,12.494,1.901,18.5c0.067-0.132,0.083-0.498,0.034-0.846
		c-0.754-8.763-1.29-17.467-1.513-26.224c-0.331-9.093,0.051-17.463,0.055-24.937c0.006-13.596,1.132-25.792,1.329-27.813
		c0.585-6.004,1.136-12.252,1.136-12.252c0.106,0.527-0.511,12.18-0.422,18.167c0.089,5.984-0.179,23.728,0.015,38.201
		c0.203,14.472,1.192,28.721,3.025,42.851c0.369-0.249,0.489-1.94,0.29-3.737c-1.128-13.546-3.281-38.185-1.642-45.432
		c0.615,14.118,4.119,30.84,5.069,30.735c0.214-14.382,0.473-27.083,0.785-38.405C179.04,293.14,179.152,286.602,179.394,280.073z"/>
	<path fill="#1D1D1B" d="M170.25,94.202c0.048-1.491-0.336-2.118-1.017-1.986c-0.679,0.137-1.667,1.093-2.771,2.999l-0.329,0.563
		c0.632-2.15,1.032-4.012,0.898-5.181c-0.079-0.63-0.648-0.361-1.045-0.4c-0.431-0.381-1.558,0.968-2.446,3.179
		c-1.144,2.521-2.22,5.207-3.296,7.759c-1.27,3.149-2.493,6.342-3.764,9.319c0.216-0.542,0.434-1.115,0.657-1.734
		c0.785-1.946,0.783-1.948,1.6-3.919c0.269-0.74,0.262-0.756,1.068-2.529l-0.573,0.786l0.459-0.706l-0.34,0.098l0.424-0.24
		l-0.083-0.413c1.228-1.228,0.329-1.097,0.329-1.097c-0.195-0.039-0.163,0.129-0.417,0.065c-0.179,0.151-0.385,0.403-0.807,1.306
		c-0.353-0.383-0.353-0.411-1.939,0.526c-0.595,0.646-1.287,1.832-1.387,3.124c-0.659,1.437-0.66,1.437-1.387,3.124
		c-0.34,0.427-0.423,0.521-0.701,0.829c0.129-0.836-0.086-1.037-0.492-0.437c-0.386-1.114-1.198-0.823-2.188,0.079
		c-0.111-0.418-0.3-0.66-0.564-0.702c-0.134-1.513-0.461-2.559-1.002-3.147l-0.524-0.373c-0.632,0.202-1.503,1.146-2.436,2.689
		l-0.315,0.454l-0.318-0.646c-2.039,1.688-4.464,5.619-6.509,7.889l-1.26,1.795c-0.966,1.291-2.035,3.483-2.984,6.133
		l-0.983,2.804l-0.512,1.8c0.211-3.206-0.209-5.14-1.32-4.848c-1.839,0.518-5.707,7.063-7.339,14.587
		c-2.443,9.972-4.583,19.783-6.478,29.69c-1.677,8.781-3.157,17.636-4.417,26.727c-0.159,0.839-0.319,1.679-0.475,2.518
		c-1.585,8.538-3.03,17.095-4.355,25.65c-0.424,2.743-0.837,5.491-1.232,8.238c-0.183,1.277-0.365,2.555-0.542,3.832
		c-0.708,5.377-1.364,10.761-1.947,16.151c-1.168,10.825-2.091,21.678-2.669,32.55c-1.019,19.149-0.235,38.39,1.403,57.504
		c0.076-8.949,1.868-48.49,5.17-83.683c0,0-1.242,22.553-1.623,35.317c-0.19,6.453-0.479,54.31-0.441,56.325
		c-0.012,4.605-0.029,9.192-0.111,13.806l-0.113,2.935l0.762-2.682c0.663,0.182,0.923,2.161,1.18,4.396
		c0.251,2.23,0.521,4.743,1.052,5.86c-0.361-2.995-0.489-5.53-0.461-7.639c0.032-2.104,0.226-3.771,0.57-4.965
		c0.928-1.42,0.379,3.609,1.305,2.185c-0.167-3.397-0.408-7.308,0.695-6.688c0.505,1.58,0.728,4.433,1.913,3.258
		c0.26-1.876,0.501-5.872,0.802-9.984c0.295-4.115,0.641-8.354,0.916-10.771c0.29,1.733,0.047,5.03-0.096,8.02
		c-0.147,2.987-0.197,5.666,0.359,6.115c0.51-1.716,0.487-5.332,0.644-8.475c0.152-3.142,0.469-5.807,1.527-5.618
		c-0.191,3.093-0.364,8.563-0.246,13.644c0.104,5.079,0.518,9.768,1.133,11.248c-0.275-1.239-0.268-4.404-0.169-7.157
		c0.153,1.787,0.717,3.757,1.213,6.013c0.543,2.46,0.997,5.248,0.786,8.576c1.057,1.266,0.024-3.491,1.089-2.218
		c0.551,2.729,0.624,5.056,0.71,7.14c0.088,2.082,0.189,3.929,0.824,5.598c-0.215-3.216-0.334-6.623-0.424-10.17
		c-0.086-3.545-0.125-7.225-0.077-10.968c0.098-7.483,0.543-15.229,1.791-22.638c0.7,0.293,0.063,4.689-0.119,5.338
		c1.043-0.064,1.352-2.879,1.717-5.592c0.331-2.487,4.197-4.585,4.416-4.917c-0.578-11.924-0.563-23.88-0.123-35.805
		c1.582-42.821,7.969-85.601,17.259-127.4c0.56-2.521,1.132-5.037,1.715-7.553c0,0,0.938-3.715,1.965-7.361
		c1.027-3.648,4.126-10.883,5.112-14.412c0.985-3.53,5.139-11.198,6.886-15.391l-1.231,2.405
		c0.505-1.222,1.014-2.417,1.458-3.799c1.012-2.036,1.938-4.506,2.636-6.813C170.58,97.826,170.203,95.69,170.25,94.202z"/>
</g>
</svg>
